<svg xmlns="http://www.w3.org/2000/svg" width="256" height="256"><path fill-opacity=".016" d="M0 128.004v128.004l128.25-.254 128.25-.254.254-127.75L257.008 0H0v128.004m.485.496c0 70.4.119 99.053.265 63.672.146-35.38.146-92.98 0-128C.604 29.153.485 58.1.485 128.5" fill="#1976D2" fill-rule="evenodd"/><path fill-opacity=".482" d="M18 12c0 11.778.042 12 2.25 12 1.98 0 2.25.509 2.25 4.25v4.25l70.75.257c38.913.141 70.75.463 70.75.714 0 .252-34.073 46.937-75.718 103.744-55.153 75.231-75.823 104.148-76.102 106.464-.352 2.929-.134 3.205 2.768 3.5l3.15.321-3.136 4.25-3.135 4.25H243v-16.5c0-15.833-.081-16.5-2-16.5-1.703 0-2-.667-2-4.494v-4.494l-76.092-.256-76.092-.256 64.722-88.5c35.597-48.675 70.735-96.712 78.086-106.75L242.989 0H18v12" fill="#1976D2" fill-rule="evenodd"/><path fill-opacity=".277" d="M19 12c0 11.333.111 12 2 12 1.667 0 2 .667 2 4v4h71c39.05 0 71 .233 71 .517 0 .285-34.425 47.49-76.5 104.902C33.57 212.371 12 242.535 12 244.401c0 2.315.391 2.599 3.584 2.599h3.584L16 251l-3.168 4H243v-15.5c0-14.688-.102-15.5-1.945-15.5-1.611 0-1.998-.816-2.25-4.75l-.305-4.75-76.12-.5-76.12-.5 77.87-106.46C206.958 48.487 242 .45 242 .29 242 .131 191.825 0 130.5 0H19v12" fill="#1976D2" fill-rule="evenodd"/><path fill-opacity=".979" d="M19 11.5c0 6.325.113 11.6.25 11.722.137.122 34.348.459 76.024.75l75.774.528-4.849 7c-2.666 3.85-38.452 52.825-79.524 108.834C36.473 208.793 12 242.959 12 244.584V247h227v-9.853c0-5.42-.289-12.62-.642-16l-.643-6.147-75.107-.109c-41.31-.059-77.658-.397-80.775-.75l-5.667-.641L151.175 111C192.43 54.625 227.515 6.588 229.14 4.25L232.096 0H19v11.5" fill="#1976D2" fill-rule="evenodd"/></svg>